<svg width="192" height="27" viewBox="0 0 192 27" fill="none" xmlns="http://www.w3.org/2000/svg">
<mask id="mask0_1_859" style="mask-type:luminance" maskUnits="userSpaceOnUse" x="31" y="0" width="24" height="23">
<path d="M31.5267 0.940826H54.9737V23H31.5267V0.940826Z" fill="white"/>
</mask>
<g mask="url(#mask0_1_859)">
<mask id="mask1_1_859" style="mask-type:luminance" maskUnits="userSpaceOnUse" x="31" y="0" width="24" height="23">
<path d="M43.2469 0.940826C36.7847 0.940826 31.5267 5.89074 31.5267 11.9704C31.5267 18.0501 36.7847 22.9968 43.2469 22.9968C46.0895 22.9968 48.8304 22.0298 50.9675 20.2681C51.4391 19.8788 51.4866 19.2054 51.0727 18.7586C50.6588 18.315 49.9397 18.2703 49.4682 18.6597C47.7483 20.0767 45.5366 20.8586 43.2469 20.8586C38.0364 20.8586 33.7995 16.8725 33.7995 11.9704C33.7995 7.06838 38.0364 3.08228 43.2469 3.08228C48.0706 3.08228 52.0632 6.5003 52.6263 10.9013H45.8046C45.3975 9.94067 44.4002 9.26089 43.2333 9.26408L40.7943 9.27366L40.7977 10.2662L37.8838 10.2758C37.6497 10.2758 37.4597 10.4577 37.4631 10.6747C37.4631 10.8949 37.6497 11.0736 37.8838 11.0736H37.8871L40.8011 11.0641L40.8078 12.6693L37.8939 12.6789C37.6599 12.6821 37.4699 12.8608 37.4699 13.081C37.4733 13.2981 37.6599 13.4768 37.8939 13.4768C37.8939 13.4768 37.8939 13.4768 37.8973 13.4768L40.8112 13.4672L40.8146 14.4597L43.2536 14.4534C44.3222 14.4502 45.2449 13.8757 45.6994 13.0396H53.834C54.4615 13.0396 54.9704 12.5608 54.9704 11.9704C54.9704 5.89074 49.709 0.940826 43.2469 0.940826ZM43.3758 12.3981L43.3554 12.4491C43.2943 12.6023 43.1112 12.6821 42.9449 12.6247C42.911 12.6119 42.8805 12.5959 42.8567 12.5736L41.1912 11.2875C41.1878 11.2875 41.1878 11.2843 41.1912 11.2811H41.1946L42.8194 11.846L43.0942 11.1566L43.1146 11.1024C43.179 10.946 43.3622 10.8662 43.5318 10.9268C43.5793 10.9428 43.6268 10.9747 43.6573 11.0098L44.9938 12.43C44.9938 12.4332 44.9938 12.4364 44.9905 12.4364C44.9905 12.4364 44.9905 12.4364 44.9871 12.4364L43.6302 11.7566L43.3758 12.3981Z" fill="white"/>
</mask>
<g mask="url(#mask1_1_859)">
<path d="M31.5267 0.940826V22.9968H54.9704V0.940826H31.5267Z" fill="white"/>
</g>
</g>
<path d="M58.544 0V21.8358H61.1322V0H58.544Z" fill="white"/>
<path d="M64.3876 12.7051V14.9263H73.0377V12.7051H64.3876Z" fill="white"/>
<path d="M85.4256 5.6456C83.1901 5.6456 81.2124 6.36686 78.7836 8.32002V6.12751H76.2937V21.8357H78.882V10.4806C80.7952 8.68065 82.9662 7.71684 85.0728 7.71684C87.4372 7.71684 88.6821 8.85937 88.6821 11.2625V21.8357H91.267V10.4806C93.1836 8.70938 95.2902 7.71684 97.3967 7.71684C99.7916 7.71684 101.07 8.83065 101.07 11.2625V21.8357H103.655V10.3913C103.655 7.41684 101.42 5.6456 97.4951 5.6456C95.0357 5.6456 93.343 6.39559 90.7242 8.4381C89.4793 6.21687 87.79 5.6456 85.4256 5.6456Z" fill="white"/>
<path d="M116.585 5.6456C110.774 5.6456 106.941 9.13065 106.941 13.6944C106.941 19.0432 110.676 22.3176 116.585 22.3176C122.586 22.3176 126.195 18.9507 126.195 13.6944C126.195 9.00937 122.172 5.6456 116.585 5.6456ZM109.529 13.9976C109.529 10.5413 112.114 7.71684 116.551 7.71684C121.053 7.71684 123.607 10.4806 123.607 13.9976C123.607 17.7507 120.927 20.2432 116.585 20.2432C112.274 20.2432 109.529 17.7794 109.529 13.9976Z" fill="white"/>
<path d="M139.218 5.6456C136.729 5.6456 134.459 6.54558 132.193 8.40938V6.12751H129.608V21.8357H132.193V10.8732C134.269 8.83065 136.6 7.71684 138.9 7.71684C142.092 7.71684 143.527 9.28064 143.527 11.6838V21.8357H146.115V11.3519C146.115 7.74875 143.655 5.6456 139.218 5.6456Z" fill="white"/>
<path d="M166.577 0V8.28815C163.385 5.94564 161.278 5.64565 159.107 5.64565C152.754 5.64565 149.528 9.60941 149.528 14.1157C149.528 18.322 152.818 22.3177 158.66 22.3177C161.787 22.3177 163.639 21.7752 166.706 19.372L167.025 21.8358H169.355C169.26 20.9358 169.162 18.9826 169.162 18.9507V0H166.577ZM152.116 14.1763C152.116 10.002 155.084 7.71689 159.233 7.71689C162.045 7.71689 164.342 8.58815 166.577 10.8126V16.9082C164.725 18.8007 161.821 20.2433 159.297 20.2433C155.115 20.2433 152.116 17.6614 152.116 14.1763Z" fill="white"/>
<path d="M181.709 5.6456C176.471 5.6456 172.577 9.04128 172.577 13.905C172.577 18.6826 176.41 22.3176 182.058 22.3176C185.349 22.3176 188.252 21.807 191.095 18.5613L189.084 17.1794C187.167 19.5826 185.155 20.2432 182.282 20.2432C178.357 20.2432 175.484 17.8113 175.165 14.4763H191.573V14.2369C191.573 8.77001 187.679 5.6456 181.709 5.6456ZM175.26 12.4051C176.088 9.24873 178.452 7.71684 181.899 7.71684C185.539 7.71684 188.191 9.55191 188.765 12.4051H175.26Z" fill="white"/>
<mask id="mask2_1_859" style="mask-type:luminance" maskUnits="userSpaceOnUse" x="1" y="0" width="24" height="24">
<path d="M1.07291 0H24.6297V23.9511H1.07291V0Z" fill="white"/>
</mask>
<g mask="url(#mask2_1_859)">
<path fill-rule="evenodd" clip-rule="evenodd" d="M13.0012 23.9563C23.1527 19.7837 15.7235 13.4411 21.2624 5.73091C21.7528 9.42715 22.737 13.4372 20.5585 17.3465C22.7861 14.0414 23.8651 7.09454 20.7065 4.02979C19.883 3.23174 18.9231 2.52642 17.8441 1.94942C12.0703 -1.12719 4.8181 0.508015 1.12427 5.55645C4.74009 0.252254 12.1777 -1.52226 18.0749 1.62379C19.2777 2.26319 20.3235 3.06124 21.2049 3.97178C21.4805 4.25435 21.7402 4.54878 21.9789 4.85508C24.9361 8.54341 25.463 13.6736 22.8893 17.9473C20.756 21.4844 17.0001 23.6079 13.0012 23.9563Z" fill="white"/>
</g>
<path fill-rule="evenodd" clip-rule="evenodd" d="M6.20216 2.69648C6.16526 2.86699 6.22271 3.0375 6.30492 3.14209C6.37919 3.1188 6.47822 3.04497 6.53567 2.99487C6.53147 2.88237 6.48196 2.8749 6.43291 2.78569C6.36284 2.66528 6.35444 2.68901 6.20216 2.69648ZM5.74487 3.04936C5.8439 3.09551 5.94245 3.09551 5.99617 2.99487C6.07464 2.73911 5.77803 2.66528 5.65005 2.83579C5.57625 2.94038 5.65005 3.00278 5.74487 3.04936ZM5.6337 4.57163C5.65846 4.4789 5.68742 4.55229 5.66686 4.33916C5.52673 4.29653 5.41977 4.31587 5.32074 4.4165C5.16847 4.57163 5.29178 4.59888 5.24227 4.73027C5.11896 4.74609 5.1353 4.70347 4.99938 4.74609C4.90502 4.98252 5.11896 4.96318 5.22592 5.04844C5.26703 5.0792 5.28384 5.1104 5.32074 5.13721C5.76963 5.07568 5.60894 4.66479 5.6337 4.57163ZM6.44926 4.18008C6.32127 4.1458 6.17741 4.06406 5.94245 4.18799C5.83549 4.23852 5.82334 4.50967 5.82334 4.62217L5.83128 4.75005L6.04568 4.76191C6.12369 4.45957 6.09099 4.63359 6.28858 4.49429C6.35864 4.44023 6.35023 4.39717 6.39134 4.33916C6.4572 4.246 6.45346 4.30444 6.44926 4.18008ZM6.35864 3.56045C6.35864 3.76963 6.35023 3.80039 6.44505 3.94409L7.48716 3.81621C7.61888 3.80434 7.90708 3.90542 7.90708 3.49453C7.90708 3.38247 7.79171 3.32007 7.64737 3.32007C7.40448 3.32007 7.12889 3.61099 6.86498 3.52969C6.72531 3.48706 6.86918 3.5064 6.66319 3.4831L6.64684 3.47915L6.61788 3.47124C6.6758 3.35127 6.72531 3.51035 6.72531 3.33589C6.72531 3.22339 6.58518 3.21943 6.47401 3.21548C6.35023 3.21196 6.24327 3.19614 6.1405 3.20801C6.01252 3.22734 6.04568 3.35127 6.12369 3.41719C6.19375 3.47519 6.30913 3.47519 6.35864 3.56045ZM5.17641 3.59517C5.1353 3.7582 5.16426 3.83159 5.3866 3.97529C5.43612 4.01001 5.52253 4.02143 5.601 4.0021C5.77803 3.95947 5.76122 3.87026 5.76542 3.8395L5.99197 3.99463C6.21057 3.93618 6.30072 3.86279 6.18581 3.67295L5.98776 3.65713C5.91396 3.52969 5.89294 3.33984 5.66686 3.47519C5.50618 3.57231 5.41977 3.59517 5.17641 3.59517ZM3.59107 4.28115C3.65273 4.50571 4.08947 4.60283 4.32395 4.49429C4.49724 4.4165 4.45614 4.31982 4.62056 4.27324C4.75649 4.23852 4.69062 4.25039 4.78545 4.18447C4.8387 4.1458 4.92978 4.12646 4.97509 4.09131C4.97088 3.92475 4.94613 3.94014 4.83075 3.87817C4.85551 3.81621 4.85131 3.8395 4.83496 3.727C4.53415 3.71558 4.67848 3.86631 4.56311 4.06406L4.29125 3.9208C4.17588 3.83555 4.15112 3.80434 4.00726 3.90542C3.87553 3.99814 3.64479 4.14932 3.59107 4.28115ZM9.01084 16.2457C8.83754 16.1525 8.33121 16.0831 8.26114 16.5015C8.38072 16.5208 8.37652 16.4856 8.49189 16.5322C8.70162 16.6096 8.98608 16.5287 9.1094 16.443C9.1094 16.3657 9.09725 16.2923 9.01084 16.2457ZM8.22004 16.0787C8.12522 16.0479 8.06776 15.9935 7.96453 15.9434C7.87392 15.9007 7.76695 15.8621 7.68474 15.8229C6.93925 15.4898 6.99296 15.6722 6.72531 15.6762V15.8853C7.10787 15.8581 7.17794 15.8467 7.60206 16.0594C7.84542 16.1833 7.7464 16.2105 7.89867 16.2224L7.95239 16.2264C7.98135 16.2343 8.19948 16.4316 8.22004 16.0787ZM15.7894 6.75307C15.8964 6.72978 15.9211 6.69858 16.0075 6.81108C15.9912 6.877 16.0365 6.84228 15.9169 6.86909C15.9912 7.24131 16.0117 6.95434 16.0286 7.1833C16.1682 7.21011 16.1271 7.17934 16.1682 7.31865C16.5143 7.36523 16.3658 7.43115 16.5433 7.43115C16.6582 7.43115 16.8642 7.34194 16.9385 7.29536C17.0412 7.2334 17.1566 7.09804 17.243 7.06684C17.243 6.86909 17.2061 6.76846 17.0907 6.65639C16.7899 6.36548 16.8563 6.58257 16.7119 6.58257H16.1846C16.0613 6.58257 16.2051 6.49731 15.9375 6.46655C15.8511 6.57466 15.8142 6.56719 15.7894 6.75307ZM11.2142 4.17656C11.2595 4.42837 11.0124 4.45166 11.1973 4.66479C11.3748 4.65293 11.3048 4.57163 11.5103 4.55229C11.535 4.5914 11.5435 4.5914 11.564 4.63359C11.593 4.69951 11.5598 4.68413 11.6093 4.73027C11.6794 4.80058 11.7948 4.7228 11.7326 4.9166C11.5724 4.90122 11.6383 4.81201 11.486 4.81201C11.1067 4.81201 11.2468 5.3855 11.4365 5.3855C11.564 5.3855 11.6257 5.34287 11.7247 5.3042C11.7247 5.20708 11.7163 5.20708 11.6752 5.1416H11.799C11.9391 5.54809 11.5477 5.45889 11.4734 5.65268C11.457 5.69927 11.4117 5.73398 11.4117 5.79595C11.4201 6.78823 11.4528 6.19497 11.5477 6.57466C11.5682 6.65991 11.5888 6.80757 11.5972 6.91216C11.7289 6.90425 11.7658 6.85415 11.877 6.88843C11.8728 6.95434 11.799 6.97763 11.799 7.102C11.799 7.36523 11.8275 7.41181 12.005 7.60517C12.0582 7.66362 12.1161 7.69043 12.1404 7.74887C12.2025 7.91543 12.0951 7.91147 12.3422 7.96552C12.7747 8.06264 12.7663 8.3997 13.1082 8.15581C13.1124 7.91894 13.1947 7.85346 13.2031 7.66758C13.2115 7.43906 13.2526 7.35732 13.4049 7.2646C13.4049 7.11738 13.3927 6.9895 13.4338 6.86162C13.4955 6.6832 13.5282 6.79175 13.5819 6.57466C13.8374 6.52851 13.9981 6.53598 14.1915 6.40063C14.4306 6.23012 14.5292 6.00161 14.6156 5.93921C14.6198 5.93569 14.6651 5.90845 14.6735 5.90449C14.7968 5.83462 14.9659 5.82319 15.1303 5.78804C15.7646 5.6685 15.3942 5.54018 15.7768 5.54018C15.8184 5.4668 15.8674 5.42417 15.909 5.3543C15.9585 5.26904 15.9459 5.20312 16.0239 5.14907L15.9501 4.93594C15.9211 4.78125 15.9048 4.88935 15.8389 4.77685C15.8142 4.68808 15.8758 4.49429 15.8674 4.44375C15.8469 4.33564 15.8015 4.45561 15.8015 4.32773C15.8015 4.23457 15.8347 4.25786 15.8511 4.24248C15.8884 4.20381 15.9006 4.19985 15.8964 4.20381C15.9169 4.18008 15.8922 4.20732 15.9169 4.16865C15.9501 4.11855 15.9295 4.13393 15.9744 4.0834C16.2135 3.78896 15.987 3.8395 15.9501 3.65361C16.065 3.66504 16.0407 3.73887 16.164 3.78105C16.2462 3.70371 16.2715 3.68437 16.2588 3.53716C15.9048 3.45981 16.1024 3.48706 15.8922 3.31655C15.88 3.30864 15.4643 3.04145 15.7277 3.04145C15.8347 3.04145 15.8716 3.10737 15.9706 3.04145C16.065 2.92895 15.8142 2.81645 15.7688 2.78174C15.6782 2.71977 15.5465 2.65386 15.5465 2.52202C15.5465 2.1542 15.8716 2.04917 15.8758 1.7666C14.7104 1.42163 15.1219 1.70464 14.9038 1.72002L14.9122 1.50688C14.5745 1.39834 14.7515 1.46074 14.4881 1.56489C14.4306 1.49546 14.4801 1.51875 14.4343 1.43745C14.4016 1.37549 14.3974 1.39834 14.3643 1.34824C14.3353 1.30957 14.3274 1.26694 14.3068 1.24365C14.2699 1.19707 14.241 1.20498 14.2162 1.16631L15.9664 1.66201C15.0439 1.32495 14.0719 1.09248 13.0592 0.97998C13.0629 0.983936 13.0671 0.983936 13.0671 0.983936C12.9602 1.19707 12.7378 1.02656 12.6346 1.02656C12.4454 1.02656 12.5898 1.0771 12.3754 1.10039C11.9881 1.14697 11.6051 1.13906 11.2221 1.11577C11.0161 1.10391 10.8928 1.19312 10.6789 1.16235C10.5303 1.13906 10.4107 1.08105 10.2421 1.10039C9.78903 1.1584 9.4018 1.24761 8.95712 1.31704C8.52085 1.38691 8.22798 1.60005 7.76275 1.60005C7.67633 1.68926 7.74219 1.70859 7.57357 1.72002C7.45399 1.73188 7.39233 1.75122 7.35543 1.84438C7.41289 1.95644 7.45399 1.88657 7.4993 1.99907C7.28537 2.00303 7.39233 1.94897 7.26482 1.94897H7.07097C7.01725 1.97974 6.70056 2.26274 6.65105 2.30889C6.56043 2.40205 6.59733 2.4561 6.65525 2.57651C6.79491 2.85908 6.86498 2.78174 7.03407 2.71582C7.12048 2.80898 7.09993 2.77427 7.09573 2.97905C7.02146 3.02959 6.9229 3.08364 6.85704 3.15351C6.86077 3.15747 6.88179 3.18472 6.88973 3.19263C7.04201 3.35127 7.61047 3.20801 7.71744 3.11484C7.84122 3.1689 7.82861 3.2001 7.9977 3.14604C8.39286 3.01025 8.17052 2.9562 8.31906 2.70044C8.40968 2.54927 8.42182 2.58003 8.55775 2.55278C8.71002 2.51851 8.7885 2.10366 9.14256 1.94106C9.3607 1.84438 9.43497 1.77847 9.62461 1.63081C9.76848 1.52227 9.75213 1.57676 9.75633 1.36758C9.87544 1.35967 9.97867 1.37549 10.1267 1.33286C10.2216 1.30562 10.3654 1.25508 10.4766 1.30562C10.4729 1.39834 10.485 1.35967 10.3285 1.4102C10.1431 1.46821 10.0072 1.56138 9.82593 1.61147L9.83013 1.77407C9.92075 1.77847 9.97447 1.78594 10.0198 1.84438C9.97447 1.93711 9.95765 1.8479 9.87965 1.99907C9.53399 1.99907 9.50083 2.13442 9.23318 2.20825C9.12621 2.23901 9.05194 2.19683 9.05194 2.29746C9.05194 2.71977 9.47607 2.43677 9.82593 2.54136C9.73157 2.77778 9.4018 2.59936 9.25793 2.63452C9.20001 2.6499 9.16732 2.68462 9.12621 2.71186C9.13836 2.93291 9.19581 2.83227 9.30745 2.88237C9.37284 2.90962 9.39386 3.02563 9.43076 3.08804C9.73952 3.04936 10.0445 3.0063 10.3575 3.0063C10.5593 3.0063 10.8638 3.32402 10.9339 3.46728C10.975 3.55254 10.9502 3.50244 10.9998 3.5644C11.0535 3.63779 11.2015 4.1146 11.2142 4.17656ZM7.89073 5.23432C8.00984 5.31958 8.07197 5.48613 8.07197 5.66059C8.19108 5.66059 8.38072 5.67202 8.38072 5.78056C8.29804 5.85044 8.11307 5.78804 7.98555 5.83462C7.89073 5.89306 7.84963 6.19497 8.12101 6.17563C8.36811 6.1563 8.38072 5.95107 8.54934 5.9625C8.5741 6.36943 8.44238 6.17563 8.327 6.50522C8.30645 6.56719 8.31906 6.60586 8.30645 6.6832C7.91549 6.70298 7.76275 6.71836 7.76275 7.03213C8.12101 7.14067 8.0061 7.06289 8.34335 6.98159C8.76374 7.28789 8.43023 7.33052 9.13042 7.62495C9.28643 7.69043 9.34435 7.74492 9.48868 7.66362C9.44711 7.38457 9.16311 7.38852 9.14676 7.24922C9.3607 7.2646 9.50083 7.4039 9.71476 7.45049C9.8633 7.05146 9.74372 7.04399 9.60359 6.88843C9.38545 6.64848 9.33594 6.67573 9.34855 6.3501C9.6531 6.39668 9.55034 6.7645 9.87965 6.75703C10.1188 6.75307 10.2216 6.22617 10.2132 6.21079C10.1515 6.075 10.0898 6.15278 9.98661 6.075L9.78482 5.90449C9.4018 5.60259 9.42235 5.82319 9.41862 5.54018C9.48448 5.53667 9.49662 5.53271 9.52979 5.51338C9.52979 5.49756 9.46393 5.06382 9.43076 5.11435C9.42656 5.12182 9.41021 5.10644 9.3976 5.09853C9.27008 5.03262 9.33174 5.05986 9.24953 4.98647C9.13836 4.89331 9.13836 4.97856 9.02719 4.88144C8.8254 4.70347 8.93237 4.62568 8.60306 4.68808C8.56616 4.63755 8.52879 4.61074 8.47974 4.5602C8.41342 4.48638 8.33961 4.33125 8.2901 4.23852C8.22798 4.12207 8.249 4.22666 8.25273 4.07197C7.90288 3.99023 8.21583 4.01396 7.64737 4.01396C7.54461 4.01396 7.61467 4.05615 7.42924 4.06406C7.37972 4.06802 7.37178 4.06055 7.32647 4.07549C7.26482 4.09526 7.34282 4.08735 7.23165 4.12998C7.0009 3.85488 6.58939 4.34311 6.48196 4.56416C6.44926 4.62217 6.39134 4.81201 6.36284 4.85859C6.50251 4.96318 6.51932 4.88935 6.6347 5.04448C6.54782 5.18027 6.55202 5.09502 6.49036 5.30771C6.81173 5.37759 7.27696 5.38154 7.62308 5.34287C7.83281 5.31562 7.76695 5.28091 7.89073 5.23432ZM5.90135 9.17446C6.1363 9.25224 6.34603 9.3643 6.55202 9.48823C6.74587 9.60468 6.90608 9.50009 7.03407 9.6394C7.10413 9.79057 6.91869 10.2089 7.17794 10.3408L7.38393 10.4533C7.67633 10.3175 7.42924 10.1123 7.42924 9.89912L7.4666 9.68598C7.50771 9.56206 7.44979 9.63193 7.57777 9.58535C7.73425 9.53481 7.68474 9.51548 7.75901 9.37617C7.83701 9.23291 7.82067 9.25971 7.7833 9.07778C7.72164 8.75215 7.50771 8.68271 7.62308 8.54692C7.73425 8.41552 7.72584 8.48891 7.72164 8.25249C7.72164 8.12461 7.72584 7.99673 7.72164 7.86884C7.72164 7.55508 7.60627 7.61704 8.46293 7.62495C8.52085 7.70625 8.68106 7.86884 8.75113 7.91543C8.85015 7.97343 8.87912 7.93476 8.92816 8.04331C9.0725 8.35312 8.88285 8.52011 8.87071 8.63613C8.95712 8.63613 9.02298 8.60888 9.0767 8.6247C9.22897 8.66338 9.22057 8.79873 9.42656 8.5935C9.60779 8.41552 9.47607 8.34961 9.58304 8.22524C9.72737 8.05869 9.85069 8.3417 9.89599 8.43838C9.96606 8.57417 10.0487 8.68623 10.1062 8.82993C10.1146 8.84926 10.1225 8.8686 10.1309 8.89585C10.1515 8.94199 10.1636 8.94594 10.1721 8.97319C10.2174 9.12041 9.99922 9.12041 10.2753 9.32168C10.3617 9.38364 10.407 9.45747 10.4766 9.53481L10.7774 9.55063L10.8802 9.76728C10.8886 9.79057 10.9012 9.82924 10.9175 9.84858C10.9998 9.94965 10.9091 9.85254 10.9834 9.89516C11.0371 9.92636 11.0161 9.90307 11.0493 9.9457C11.1726 10.0929 11.1193 10.3447 11.1193 10.5539C11.1193 10.6857 11.0287 10.6198 11.0493 10.829C11.1852 10.8756 11.1726 10.8677 11.3459 10.8716C11.3954 10.9841 11.3912 10.9103 11.4159 11.0733C11.4323 11.1854 11.4612 11.1894 11.5271 11.2627C11.6341 11.3832 11.6177 11.573 11.4117 11.5304C11.0904 11.4644 11.1646 11.3019 10.4729 11.3019C10.5056 11.1894 10.5714 11.1274 10.6167 11.0228C10.6747 10.891 10.8106 10.6664 10.798 10.5464C10.5672 10.4999 10.5551 10.608 10.5345 10.6976C10.4687 10.7051 10.0361 10.7556 9.99922 10.7785C10.0277 10.8136 10.0651 10.8176 10.1225 10.8176L10.1188 11.0268C9.77688 11.0268 9.87544 11.0228 9.72737 10.8523C9.62461 10.7319 9.42235 10.8022 9.28643 10.8562C9.06829 10.9375 9.06409 10.9296 8.95712 11.112C8.8665 11.2627 8.71423 11.2786 8.70162 11.4451C8.90761 11.4258 8.87912 11.2399 9.12621 11.0887C9.22477 11.0268 9.46393 10.8831 9.59565 10.9296C9.85489 11.0188 9.48448 11.1854 9.74792 11.3985C9.80538 11.4412 9.88385 11.453 9.94551 11.4838C10.1309 11.5611 10.2421 11.5339 10.4355 11.4952C10.4355 11.7202 10.4439 11.6815 10.3164 11.8015C10.2174 11.8868 10.1721 11.9061 10.0198 11.9294C9.88385 11.9487 9.8633 12.0186 9.75633 12.0885C9.62461 12.1737 9.62461 12.1693 9.43076 12.1693C9.38966 11.9527 9.50923 12.0612 9.50923 11.8986C9.26167 11.8828 9.39386 11.9566 9.19207 12.0067C9.0809 12.034 9.02719 12.0419 8.94498 12.1113L8.75954 12.2739C8.71423 12.3442 8.75533 12.4682 8.75533 12.5688C8.61941 12.6114 8.49189 12.654 8.38072 12.7353C8.22004 12.8478 8.24479 12.8865 8.15838 13.0685C8.10046 13.1924 8.04301 13.297 7.99349 13.456C7.86177 13.8784 7.90288 13.7386 7.66792 13.9597C7.5362 14.0836 7.29751 14.1842 7.20269 14.3354C7.00931 14.6531 7.39654 14.777 7.39233 15.2925L7.38813 15.3817C7.31807 15.3817 7.24426 15.3817 7.19055 15.3624C7.09573 15.3272 6.99296 15.0754 6.9556 14.9748C6.80752 14.5991 6.80752 14.5173 6.02933 14.607L5.99617 14.7384C5.71591 14.777 5.71217 14.6338 5.46508 14.6338C5.32915 14.6338 5.02834 14.8663 5.02834 14.9788C5.02834 15.7421 4.95827 15.5364 5.19322 15.9548C5.25488 16.0638 5.30439 16.1877 5.44032 16.2185C5.74067 16.2844 5.96301 16.1139 6.00832 15.8309C6.28017 15.8309 6.23112 15.8036 6.41609 15.9082C6.40395 16.1253 6.33809 16.1565 6.33809 16.5674C6.48616 16.6526 6.72905 16.668 6.90235 16.7379C7.10787 16.8231 7.04201 17.0903 7.04201 17.3456C7.07517 17.4001 7.15318 17.4661 7.19849 17.4968C7.30172 17.5786 7.31012 17.5513 7.43764 17.5399C7.83701 17.4968 7.66792 17.5939 7.93604 17.6559C8.04301 17.5939 8.08411 17.474 8.24059 17.4081C8.30645 17.3848 8.38913 17.3654 8.45872 17.3421C8.70582 17.2569 8.35176 17.0517 9.08884 17.3887L9.29063 17.4893C9.52138 17.59 9.93336 17.4546 10.0814 17.5399C10.1763 17.5939 10.1104 17.6093 10.1847 17.6673C10.2421 17.706 10.3822 17.7253 10.5098 17.815C10.6046 17.8805 10.8638 18.1015 10.9339 18.1169C11.2758 18.1947 11.6462 18.0628 11.9017 18.555C12.0951 18.9382 11.8237 18.8257 12.2932 18.911C12.3917 18.9268 12.4496 18.9501 12.5524 18.9809C12.9438 19.0934 12.878 19.1672 13.162 19.1281C13.3843 19.0973 13.9364 19.3764 14.1419 19.4458C14.1419 19.8993 14.0924 19.8294 13.8126 20.0777C13.7094 20.1665 13.5945 20.217 13.5487 20.3062C13.5202 20.3484 13.4791 20.5928 13.446 20.682C13.3722 20.8793 13.2157 21.1236 13.0302 21.2357C12.9312 21.2981 12.672 21.2164 12.2516 21.4761C12.1362 21.5495 12.1283 21.7397 11.7948 21.9915C11.7326 22.0381 11.6999 22.0416 11.6546 22.0882C11.564 22.1814 11.6504 22.1621 11.4981 22.1928C11.0082 22.282 11.2015 22.4407 10.8143 22.4872C10.6952 22.5031 10.5014 22.5453 10.4191 22.5918C10.2132 22.7122 10.1146 22.8823 9.9371 22.9755C9.89226 22.9988 9.93336 22.9755 9.89226 23.0027C9.8633 23.0221 9.78062 23.084 9.59985 22.9988C9.48448 22.9482 9.34855 22.9873 9.21683 22.9561C9.20422 22.7663 9.12201 22.9447 9.20422 22.7623C9.24953 22.6578 9.24953 22.6112 9.17946 22.5417C8.99449 22.3598 8.99823 22.3598 9.10566 22.1234C9.22897 21.8443 9.05615 21.8483 9.13042 21.6545C9.15471 21.6 9.15471 21.6466 9.16311 21.5459L9.17526 20.8912C9.15891 20.8099 9.17946 20.8832 9.13415 20.8252C9.0398 20.7092 9.0809 20.7053 8.91602 20.6433C8.39707 20.4416 8.36017 20.3449 8.04721 19.9494C8.0019 19.8914 7.98135 19.8492 7.93978 19.8026C7.29331 19.0353 7.60627 19.4265 7.54461 18.9576C7.5362 18.8723 7.5362 18.7871 7.54041 18.6983C7.64363 18.613 7.90708 18.3687 7.90708 18.2254C7.90708 18.0857 7.77536 17.7956 7.62308 17.7956C7.16579 17.7956 7.42129 17.9077 6.97615 17.6638C6.71691 17.5162 6.59313 17.133 6.31754 17.0398C6.21851 17.009 6.21851 17.009 6.1321 16.9664C6.03307 16.9159 6.00458 16.9431 5.93031 16.9119C5.86024 16.8811 5.8808 16.846 5.78598 16.7994C5.67901 16.7414 5.71217 16.7726 5.6295 16.6948C5.52253 16.5902 5.36605 16.6214 5.22172 16.6096C5.09 16.5981 5.00358 16.5089 4.87606 16.4588C4.50939 16.3116 4.15953 16.1174 4.04836 15.7456C3.97409 15.4938 3.78071 15.3466 3.63217 15.1453L3.07632 14.3121C3.01467 14.2348 3.06792 14.2774 2.99411 14.2581C2.96515 14.3394 2.97356 14.3512 3.02261 14.4092C3.14639 14.5604 3.03942 14.5604 3.14219 14.6377L3.25336 14.8003C3.29072 14.8816 3.33183 14.9436 3.38928 15.0328C3.4757 15.1646 3.7639 15.3119 3.54576 15.4745C3.32762 15.4477 3.15853 15.0135 3.04316 14.8623C2.95675 14.7538 2.9035 14.6298 2.84137 14.5138C2.72647 14.3007 2.67275 13.9056 2.46676 13.758C2.24442 13.6068 1.87354 12.8632 1.87354 12.6773C1.87354 12.3943 1.83664 12.1113 1.9025 11.8248C1.92305 11.7237 1.96836 11.7395 1.91091 11.6235C1.81188 11.4293 1.95201 11.4064 1.76657 11.1933C1.50733 10.8949 1.73388 10.7978 1.58581 10.5306C1.54844 10.4647 1.53209 10.43 1.46623 10.3834C1.35086 10.3021 1.63906 9.99975 1.21072 9.99975C1.21072 9.84507 1.10796 9.67456 1.08741 9.51196C1.0748 9.42275 1.10376 9.45351 1.05425 9.38364L0.914116 9.1938C0.819294 9.1125 0.790801 9.15512 0.72494 9.20566C0.625915 9.283 0.671224 9.22895 0.589014 9.26367C0.506804 9.29487 0.477844 9.41089 0.448884 9.48823C0.36247 9.73256 0.489989 9.93032 0.213932 9.99624C0.131722 9.86045 0.226544 9.74048 0.143867 9.65874C0.0948213 9.91098 0.0411049 9.77519 0 9.94965C0.226544 8.8374 0.630119 7.78359 1.18176 6.81108C1.16542 6.84975 1.16121 6.88095 1.16542 6.90029C1.25183 6.95083 1.35085 6.85415 1.45362 6.82295C1.58954 6.78384 1.68016 6.7957 1.84505 6.78823C1.88195 6.72978 1.88615 6.69507 1.92305 6.63706C1.96042 6.57861 2.00573 6.54389 2.04263 6.50127C2.21172 6.32329 2.24442 6.37339 2.46676 6.37339C2.59848 6.37339 2.80027 6.23012 2.92405 6.22617C3.0184 6.22617 3.20805 6.27231 3.30707 6.31538C3.38134 6.34263 3.36873 6.33471 3.41404 6.37339L3.39349 6.55532C3.443 6.57861 3.62797 6.49731 3.83396 6.49731C3.93299 6.49731 3.91243 6.57466 3.98624 6.62124C4.0194 6.64453 4.0236 6.64057 4.06891 6.64848C4.07312 6.47402 4.11002 6.49336 4.00305 6.3813C3.90823 6.28022 3.96195 6.30395 3.80921 6.30395C3.71065 6.30395 3.74334 6.43139 3.57892 6.26089C3.443 6.11763 3.46355 6.21079 3.31128 6.13696C3.28232 5.9937 3.36453 5.94316 3.4841 5.9124C3.66113 5.86977 3.62423 5.88515 3.7312 5.77309C3.58687 5.70718 3.56631 5.82319 3.36453 5.78452C3.30707 5.71069 3.36453 5.78056 3.33557 5.72256L3.2286 5.55205C3.16694 5.6373 3.13004 5.62544 3.04736 5.70718C2.97356 5.78452 2.9446 5.7999 2.80027 5.77309C2.78812 5.49756 3.04316 5.08315 3.24541 4.87793C3.32342 4.80058 3.53735 4.77685 3.66534 4.77685C3.78492 4.77685 3.96989 4.92451 4.03155 4.97461C4.09741 5.02515 4.13057 5.05986 4.18802 5.10249L4.2665 5.16445C4.32815 5.22641 4.24594 5.20708 4.36132 5.22641C4.36552 5.22246 4.36973 5.21103 4.36973 5.21499C4.38187 5.25762 4.38187 5.18774 4.38187 5.18027C4.43559 5.0291 4.44773 4.87397 4.522 4.72676C4.58366 4.61426 4.88447 4.37783 4.88447 4.64502C4.88447 4.74609 4.8102 4.81597 4.71538 4.83926C4.71538 4.97856 4.70697 5.1416 4.71538 5.27695C4.72753 5.56348 5.04889 5.36968 4.95827 5.6685C4.93772 5.74189 4.88821 5.75727 4.83075 5.79595C4.89662 6.11367 4.73593 6.02842 4.58786 6.075L4.53835 6.09433L4.522 6.10224L4.49304 6.11763L4.47669 6.12554C4.47669 6.12554 4.46828 6.12905 4.46408 6.13301C4.49304 6.19145 4.59207 6.23804 4.64952 6.29165L4.93772 6.28813C5.02834 6.19892 5.08626 6.16025 5.14792 6.01699C5.20957 5.87329 5.20117 5.7999 5.31654 5.68345C5.54729 5.68345 5.39922 5.74189 5.53888 5.78452C5.60894 5.78452 5.73693 5.79243 5.69162 5.69531C5.67481 5.65664 5.52673 5.62192 5.52673 5.5248C5.52673 5.11435 5.61315 5.21103 5.69162 5.08315C5.76963 4.95527 5.68321 4.98647 5.9219 4.98647C6.02093 4.98647 6.08258 5.273 6.08258 5.36572C6.08258 5.54018 6.02093 5.44746 6.12369 5.60259C6.19002 5.70278 6.169 5.77309 6.21057 5.86582C6.30072 5.83857 6.34229 5.7186 6.36705 5.62939C6.3834 5.64477 6.39134 5.64873 6.39554 5.64873C6.39554 5.65268 6.39554 5.66059 6.40815 5.67993C6.41609 5.69927 6.4203 5.72651 6.42871 5.74585C6.50251 5.73794 6.48196 5.72256 6.53988 5.74936C6.53988 5.87329 6.45346 6.04028 6.51092 6.16421C6.58939 6.18706 6.60574 6.17212 6.6716 6.14092C6.68795 6.05962 6.68374 5.98183 6.72111 5.9124C6.76222 5.82715 6.81593 5.81528 6.85704 5.74936C6.89814 5.59072 6.70476 5.28838 7.37972 5.54809C7.38393 5.65664 7.35543 5.7687 7.35543 5.86186C7.35543 6.14487 7.4582 6.1563 7.22324 6.36548C7.14944 6.42788 7.16579 6.46655 7.06256 6.56323C7.07517 6.64848 7.09152 6.62519 7.08732 6.69111C7.07938 6.76098 7.05462 6.74516 7.04201 6.83042C7.16159 6.97368 7.40868 7.09409 7.37599 7.31865C7.22745 7.39248 7.19849 7.27998 6.9967 7.26064C6.9556 7.41577 6.97194 7.3771 6.78277 7.39995C6.66319 7.41577 6.54782 7.35732 6.53147 7.26855C6.50251 7.13672 6.6347 7.12881 6.6347 7.01279C6.6347 6.92358 6.62209 6.87304 6.56837 6.83437C6.44926 6.94292 6.66319 7.01279 6.23486 7.28393C5.86445 7.52036 6.11575 7.60913 5.86024 7.69834C5.56784 7.80293 5.74067 7.76426 5.51459 8.14394C5.39922 8.3417 5.30019 8.46167 5.44032 8.72929C5.58045 8.80268 5.55569 8.68271 5.60521 8.86465C5.65425 9.06592 5.69536 9.1125 5.90135 9.17446Z" fill="white"/>
<mask id="mask3_1_859" style="mask-type:luminance" maskUnits="userSpaceOnUse" x="12" y="15" width="8" height="12">
<path d="M12.0741 15.8625H19.3683V27H12.0741V15.8625Z" fill="white"/>
</mask>
<g mask="url(#mask3_1_859)">
<mask id="mask4_1_859" style="mask-type:luminance" maskUnits="userSpaceOnUse" x="11" y="15" width="9" height="12">
<path d="M19.316 26.1417L12.6697 26.9279L11.2978 16.6596L17.9442 15.8739L19.316 26.1417Z" fill="white"/>
</mask>
<g mask="url(#mask4_1_859)">
<mask id="mask5_1_859" style="mask-type:luminance" maskUnits="userSpaceOnUse" x="11" y="13" width="26" height="19">
<path d="M36.5782 28.3544L13.2115 31.1172L11.2773 16.6364L34.6444 13.874L36.5782 28.3544Z" fill="white"/>
</mask>
<g mask="url(#mask5_1_859)">
<mask id="mask6_1_859" style="mask-type:luminance" maskUnits="userSpaceOnUse" x="11" y="13" width="26" height="19">
<path d="M36.5726 28.3553L13.2498 31.1124L11.3179 16.6505L34.6407 13.8929L36.5726 28.3553Z" fill="white"/>
</mask>
<g mask="url(#mask6_1_859)">
<mask id="mask7_1_859" style="mask-type:luminance" maskUnits="userSpaceOnUse" x="11" y="13" width="26" height="19">
<path d="M36.5726 28.3553L13.2498 31.1124L11.3188 16.6566L34.6416 13.899L36.5726 28.3553Z" fill="white"/>
</mask>
<g mask="url(#mask7_1_859)">
<path d="M29.1658 25.8886C29.1634 25.8891 29.1616 25.8891 29.1597 25.8895C28.1755 26.0038 27.147 25.7357 26.3618 25.1635C25.5789 24.5914 25.0478 23.7182 24.9222 22.7931C24.8003 21.8654 25.0857 20.8977 25.6933 20.159C26.3039 19.4221 27.2301 18.9228 28.2134 18.8064C29.1989 18.6899 30.2275 18.958 31.0127 19.5302C31.796 20.1045 32.3266 20.9755 32.4509 21.9028C32.5742 22.8283 32.2916 23.7977 31.6834 24.5342C31.0748 25.2712 30.149 25.7704 29.1658 25.8886ZM32.7629 28.8075C34.0549 28.6545 34.9634 27.5519 34.8013 26.3382L33.4454 16.1855L34.1553 16.1016C34.5799 16.051 34.8808 15.6872 34.827 15.2877L34.7383 14.6215C34.6846 14.2203 34.2978 13.9395 33.8737 13.9895L21.4624 15.4569C21.0382 15.5074 20.7374 15.8695 20.7907 16.2707L20.8799 16.937C20.9331 17.336 21.3204 17.619 21.7445 17.5689L22.4526 17.485L23.4676 25.0822L23.1439 25.621C22.8053 26.1857 22.0827 26.5082 21.418 26.2863L21.4156 26.2846C20.5314 26.013 20.1727 25.058 20.6113 24.3277L21.0177 23.6544C21.6114 22.6639 21.3787 21.3794 20.4006 20.7352C19.3632 20.0527 17.9815 20.2913 17.2486 21.1953C16.2869 20.3115 14.7604 20.1713 13.6272 20.9307L13.5618 20.976C13.3801 21.0964 13.3362 21.335 13.4661 21.506L13.4665 21.5077L13.6935 21.8052L12.3478 22.7043C12.1605 22.8313 12.1175 23.0761 12.2507 23.2541C12.3856 23.4321 12.6458 23.4725 12.835 23.3473L14.1765 22.4468L15.5685 24.2846L14.2246 25.1837C14.0378 25.3107 13.9925 25.5555 14.1275 25.7335C14.2606 25.9097 14.5226 25.9519 14.7118 25.8245L16.0538 24.9258L16.2808 25.2237C16.4088 25.3942 16.6624 25.4355 16.8437 25.3134L16.9114 25.2699C18.0717 24.4916 18.4197 23.0352 17.7835 21.8777C18.1296 21.3025 18.8471 20.9922 19.5075 21.2111C19.5099 21.2128 19.5099 21.2128 19.5122 21.2146C20.3908 21.4963 20.7477 22.4495 20.3142 23.1715L19.9078 23.8469C19.3142 24.8352 19.551 26.1211 20.5291 26.7653C21.0228 27.091 21.5978 27.207 22.1378 27.1428C22.2167 27.1336 22.2905 27.1208 22.3667 27.1059C22.8594 27.0004 23.3107 26.7412 23.6381 26.358L23.8091 27.6381C23.9711 28.8514 25.1436 29.7083 26.4356 29.5554L32.7629 28.8075Z" fill="white"/>
</g>
</g>
</g>
</g>
</g>
</svg>
