<svg width="329" height="58" viewBox="0 0 329 58" fill="none" xmlns="http://www.w3.org/2000/svg">
<rect x="1" y="1" width="327" height="56" rx="4" fill="#171A20"/>
<rect x="1" y="1" width="327" height="56" rx="4" stroke="#344054"/>
<path fill-rule="evenodd" clip-rule="evenodd" d="M85.1913 25.8418C84.2015 24.6085 82.8129 23.895 81.502 23.895C79.7678 23.895 79.035 24.7189 77.8319 24.7189C76.5918 24.7189 75.6489 23.8962 74.1489 23.8962C72.6755 23.8962 71.109 24.7911 70.1159 26.3206C68.7184 28.4715 68.955 32.5184 71.2211 35.967C72.0316 37.2001 73.114 38.5868 74.5293 38.6C75.7871 38.6115 76.143 37.7977 77.8497 37.7881C79.5566 37.7787 79.8794 38.6089 81.137 38.5971C82.5522 38.5837 83.6942 37.0482 84.5042 35.8148C85.0847 34.9314 85.301 34.485 85.7519 33.4863C82.4757 32.2484 81.9489 27.619 85.1913 25.8418Z" fill="#F9FAFB"/>
<path fill-rule="evenodd" clip-rule="evenodd" d="M80.1866 22.5171C80.8166 21.7088 81.2951 20.5669 81.1214 19.4C80.0923 19.471 78.8884 20.1255 78.1857 20.9792C77.5478 21.7539 77.021 22.9028 77.2259 24.0195C78.3494 24.0543 79.5119 23.383 80.1866 22.5171Z" fill="#F9FAFB"/>
<path d="M107.492 35.24C106.34 35.24 105.353 34.9893 104.532 34.488C103.711 33.9813 103.079 33.2773 102.636 32.376C102.199 31.4747 101.98 30.4293 101.98 29.24C101.98 28.0507 102.199 27.0053 102.636 26.104C103.079 25.2027 103.711 24.5013 104.532 24C105.353 23.4933 106.34 23.24 107.492 23.24C108.82 23.24 109.927 23.5733 110.812 24.24C111.697 24.9013 112.319 25.7947 112.676 26.92L110.732 27.456C110.508 26.704 110.127 26.1173 109.588 25.696C109.049 25.2693 108.351 25.056 107.492 25.056C106.719 25.056 106.073 25.2293 105.556 25.576C105.044 25.9227 104.657 26.4107 104.396 27.04C104.14 27.664 104.009 28.3973 104.004 29.24C104.004 30.0827 104.132 30.8187 104.388 31.448C104.649 32.072 105.039 32.5573 105.556 32.904C106.073 33.2507 106.719 33.424 107.492 33.424C108.351 33.424 109.049 33.2107 109.588 32.784C110.127 32.3573 110.508 31.7707 110.732 31.024L112.676 31.56C112.319 32.6853 111.697 33.5813 110.812 34.248C109.927 34.9093 108.82 35.24 107.492 35.24ZM118.449 35.24C117.584 35.24 116.83 35.0453 116.184 34.656C115.539 34.2667 115.038 33.7307 114.68 33.048C114.328 32.36 114.152 31.5707 114.152 30.68C114.152 29.7733 114.334 28.9787 114.696 28.296C115.059 27.6133 115.563 27.08 116.208 26.696C116.854 26.312 117.601 26.12 118.449 26.12C119.318 26.12 120.075 26.3147 120.72 26.704C121.366 27.0933 121.867 27.632 122.225 28.32C122.582 29.0027 122.76 29.7893 122.76 30.68C122.76 31.576 122.579 32.368 122.217 33.056C121.859 33.7387 121.358 34.2747 120.713 34.664C120.067 35.048 119.313 35.24 118.449 35.24ZM118.449 33.432C119.217 33.432 119.787 33.176 120.161 32.664C120.534 32.152 120.72 31.4907 120.72 30.68C120.72 29.8427 120.531 29.176 120.153 28.68C119.774 28.1787 119.206 27.928 118.449 27.928C117.931 27.928 117.505 28.0453 117.168 28.28C116.838 28.5093 116.592 28.832 116.432 29.248C116.272 29.6587 116.192 30.136 116.192 30.68C116.192 31.5173 116.382 32.1867 116.76 32.688C117.144 33.184 117.707 33.432 118.449 33.432ZM130.699 35V30.84C130.699 30.568 130.68 30.2667 130.643 29.936C130.606 29.6053 130.518 29.288 130.379 28.984C130.246 28.6747 130.043 28.4213 129.771 28.224C129.504 28.0267 129.142 27.928 128.683 27.928C128.438 27.928 128.195 27.968 127.955 28.048C127.715 28.128 127.496 28.2667 127.299 28.464C127.107 28.656 126.952 28.9227 126.835 29.264C126.718 29.6 126.659 30.032 126.659 30.56L125.515 30.072C125.515 29.336 125.656 28.6693 125.939 28.072C126.227 27.4747 126.648 27 127.203 26.648C127.758 26.2907 128.44 26.112 129.251 26.112C129.891 26.112 130.419 26.2187 130.835 26.432C131.251 26.6453 131.582 26.9173 131.827 27.248C132.072 27.5787 132.254 27.9307 132.371 28.304C132.488 28.6773 132.563 29.032 132.595 29.368C132.632 29.6987 132.651 29.968 132.651 30.176V35H130.699ZM124.707 35V26.36H126.427V29.04H126.659V35H124.707ZM140.003 35C139.432 35.1067 138.872 35.152 138.323 35.136C137.779 35.1253 137.291 35.0267 136.859 34.84C136.427 34.648 136.099 34.3467 135.875 33.936C135.677 33.5627 135.573 33.1813 135.563 32.792C135.552 32.4027 135.547 31.9627 135.547 31.472V23.96H137.467V31.36C137.467 31.7067 137.469 32.0107 137.475 32.272C137.485 32.5333 137.541 32.7467 137.643 32.912C137.835 33.232 138.141 33.4107 138.563 33.448C138.984 33.4853 139.464 33.464 140.003 33.384V35ZM133.979 27.872V26.36H140.003V27.872H133.979ZM142.221 25.048V23.28H144.149V25.048H142.221ZM142.221 35V26.36H144.149V35H142.221ZM152.721 35V30.84C152.721 30.568 152.702 30.2667 152.665 29.936C152.628 29.6053 152.54 29.288 152.401 28.984C152.268 28.6747 152.065 28.4213 151.793 28.224C151.526 28.0267 151.164 27.928 150.705 27.928C150.46 27.928 150.217 27.968 149.977 28.048C149.737 28.128 149.518 28.2667 149.321 28.464C149.129 28.656 148.974 28.9227 148.857 29.264C148.74 29.6 148.681 30.032 148.681 30.56L147.537 30.072C147.537 29.336 147.678 28.6693 147.961 28.072C148.249 27.4747 148.67 27 149.225 26.648C149.78 26.2907 150.462 26.112 151.273 26.112C151.913 26.112 152.441 26.2187 152.857 26.432C153.273 26.6453 153.604 26.9173 153.849 27.248C154.094 27.5787 154.276 27.9307 154.393 28.304C154.51 28.6773 154.585 29.032 154.617 29.368C154.654 29.6987 154.673 29.968 154.673 30.176V35H152.721ZM146.729 35V26.36H148.449V29.04H148.681V35H146.729ZM160.201 35.248C159.561 35.248 159.033 35.1413 158.617 34.928C158.201 34.7147 157.87 34.4427 157.625 34.112C157.379 33.7813 157.198 33.4293 157.081 33.056C156.963 32.6827 156.886 32.3307 156.849 32C156.817 31.664 156.801 31.392 156.801 31.184V26.36H158.753V30.52C158.753 30.7867 158.771 31.088 158.809 31.424C158.846 31.7547 158.931 32.0747 159.065 32.384C159.203 32.688 159.406 32.9387 159.673 33.136C159.945 33.3333 160.31 33.432 160.769 33.432C161.014 33.432 161.257 33.392 161.497 33.312C161.737 33.232 161.953 33.096 162.145 32.904C162.342 32.7067 162.499 32.4373 162.617 32.096C162.734 31.7547 162.793 31.3227 162.793 30.8L163.937 31.288C163.937 32.024 163.793 32.6907 163.505 33.288C163.222 33.8853 162.803 34.3627 162.249 34.72C161.694 35.072 161.011 35.248 160.201 35.248ZM163.025 35V32.32H162.793V26.36H164.729V35H163.025ZM171.104 35.24C170.23 35.24 169.462 35.0507 168.8 34.672C168.139 34.2933 167.622 33.768 167.248 33.096C166.88 32.424 166.696 31.6507 166.696 30.776C166.696 29.832 166.878 29.0133 167.24 28.32C167.603 27.6213 168.107 27.08 168.752 26.696C169.398 26.312 170.144 26.12 170.992 26.12C171.888 26.12 172.648 26.3307 173.272 26.752C173.902 27.168 174.368 27.7573 174.672 28.52C174.976 29.2827 175.091 30.1813 175.016 31.216H173.104V30.512C173.099 29.5733 172.934 28.888 172.608 28.456C172.283 28.024 171.771 27.808 171.072 27.808C170.283 27.808 169.696 28.0533 169.312 28.544C168.928 29.0293 168.736 29.7413 168.736 30.68C168.736 31.5547 168.928 32.232 169.312 32.712C169.696 33.192 170.256 33.432 170.992 33.432C171.467 33.432 171.875 33.328 172.216 33.12C172.563 32.9067 172.83 32.6 173.016 32.2L174.92 32.776C174.59 33.5547 174.078 34.16 173.384 34.592C172.696 35.024 171.936 35.24 171.104 35.24ZM168.128 31.216V29.76H174.072V31.216H168.128ZM182.244 35L179.604 26.344L181.492 26.36L183.18 31.904L184.892 26.36H186.516L188.22 31.904L189.916 26.36H191.804L189.164 35H187.66L185.7 29.056L183.748 35H182.244ZM193.608 25.048V23.28H195.536V25.048H193.608ZM193.608 35V26.36H195.536V35H193.608ZM203.196 35C202.626 35.1067 202.066 35.152 201.516 35.136C200.972 35.1253 200.484 35.0267 200.052 34.84C199.62 34.648 199.292 34.3467 199.068 33.936C198.871 33.5627 198.767 33.1813 198.756 32.792C198.746 32.4027 198.74 31.9627 198.74 31.472V23.96H200.66V31.36C200.66 31.7067 200.663 32.0107 200.668 32.272C200.679 32.5333 200.735 32.7467 200.836 32.912C201.028 33.232 201.335 33.4107 201.756 33.448C202.178 33.4853 202.658 33.464 203.196 33.384V35ZM197.172 27.872V26.36H203.196V27.872H197.172ZM211.23 35V30.84C211.23 30.568 211.212 30.2667 211.174 29.936C211.137 29.6053 211.049 29.288 210.91 28.984C210.777 28.6747 210.574 28.4213 210.302 28.224C210.036 28.0267 209.673 27.928 209.214 27.928C208.969 27.928 208.726 27.968 208.486 28.048C208.246 28.128 208.028 28.2667 207.83 28.464C207.638 28.656 207.484 28.9227 207.366 29.264C207.249 29.6 207.19 30.032 207.19 30.56L206.046 30.072C206.046 29.336 206.188 28.6693 206.47 28.072C206.758 27.4747 207.18 27 207.734 26.648C208.289 26.2907 208.972 26.112 209.782 26.112C210.422 26.112 210.95 26.2187 211.366 26.432C211.782 26.6453 212.113 26.9173 212.358 27.248C212.604 27.5787 212.785 27.9307 212.902 28.304C213.02 28.6773 213.094 29.032 213.126 29.368C213.164 29.6987 213.182 29.968 213.182 30.176V35H211.23ZM205.238 35V23.48H206.958V29.544H207.19V35H205.238ZM218.073 35L221.705 23.48H224.529L228.161 35H226.177L222.881 24.664H223.313L220.057 35H218.073ZM220.097 32.504V30.704H226.145V32.504H220.097ZM233.96 35.24C233.117 35.24 232.41 35.04 231.84 34.64C231.269 34.24 230.84 33.696 230.552 33.008C230.264 32.3147 230.12 31.5387 230.12 30.68C230.12 29.8107 230.264 29.032 230.552 28.344C230.84 27.656 231.261 27.1147 231.816 26.72C232.376 26.32 233.066 26.12 233.888 26.12C234.704 26.12 235.41 26.32 236.008 26.72C236.61 27.1147 237.077 27.656 237.408 28.344C237.738 29.0267 237.904 29.8053 237.904 30.68C237.904 31.544 237.741 32.32 237.416 33.008C237.09 33.696 236.632 34.24 236.04 34.64C235.448 35.04 234.754 35.24 233.96 35.24ZM229.792 38.84V26.36H231.496V32.424H231.736V38.84H229.792ZM233.664 33.512C234.165 33.512 234.578 33.3867 234.904 33.136C235.229 32.8853 235.469 32.5467 235.624 32.12C235.784 31.688 235.864 31.208 235.864 30.68C235.864 30.1573 235.784 29.6827 235.624 29.256C235.464 28.824 235.216 28.4827 234.88 28.232C234.544 27.976 234.117 27.848 233.6 27.848C233.109 27.848 232.709 27.968 232.4 28.208C232.09 28.4427 231.861 28.7733 231.712 29.2C231.568 29.6213 231.496 30.1147 231.496 30.68C231.496 31.24 231.568 31.7333 231.712 32.16C231.861 32.5867 232.093 32.92 232.408 33.16C232.728 33.3947 233.146 33.512 233.664 33.512ZM244.019 35.24C243.176 35.24 242.47 35.04 241.899 34.64C241.328 34.24 240.899 33.696 240.611 33.008C240.323 32.3147 240.179 31.5387 240.179 30.68C240.179 29.8107 240.323 29.032 240.611 28.344C240.899 27.656 241.32 27.1147 241.875 26.72C242.435 26.32 243.126 26.12 243.947 26.12C244.763 26.12 245.47 26.32 246.067 26.72C246.67 27.1147 247.136 27.656 247.467 28.344C247.798 29.0267 247.963 29.8053 247.963 30.68C247.963 31.544 247.8 32.32 247.475 33.008C247.15 33.696 246.691 34.24 246.099 34.64C245.507 35.04 244.814 35.24 244.019 35.24ZM239.851 38.84V26.36H241.555V32.424H241.795V38.84H239.851ZM243.723 33.512C244.224 33.512 244.638 33.3867 244.963 33.136C245.288 32.8853 245.528 32.5467 245.683 32.12C245.843 31.688 245.923 31.208 245.923 30.68C245.923 30.1573 245.843 29.6827 245.683 29.256C245.523 28.824 245.275 28.4827 244.939 28.232C244.603 27.976 244.176 27.848 243.659 27.848C243.168 27.848 242.768 27.968 242.459 28.208C242.15 28.4427 241.92 28.7733 241.771 29.2C241.627 29.6213 241.555 30.1147 241.555 30.68C241.555 31.24 241.627 31.7333 241.771 32.16C241.92 32.5867 242.152 32.92 242.467 33.16C242.787 33.3947 243.206 33.512 243.723 33.512ZM250.086 35V23.24H252.014V35H250.086ZM258.539 35.24C257.664 35.24 256.896 35.0507 256.235 34.672C255.573 34.2933 255.056 33.768 254.683 33.096C254.315 32.424 254.131 31.6507 254.131 30.776C254.131 29.832 254.312 29.0133 254.675 28.32C255.037 27.6213 255.541 27.08 256.187 26.696C256.832 26.312 257.579 26.12 258.427 26.12C259.323 26.12 260.083 26.3307 260.707 26.752C261.336 27.168 261.803 27.7573 262.107 28.52C262.411 29.2827 262.525 30.1813 262.451 31.216H260.539V30.512C260.533 29.5733 260.368 28.888 260.043 28.456C259.717 28.024 259.205 27.808 258.507 27.808C257.717 27.808 257.131 28.0533 256.747 28.544C256.363 29.0293 256.171 29.7413 256.171 30.68C256.171 31.5547 256.363 32.232 256.747 32.712C257.131 33.192 257.691 33.432 258.427 33.432C258.901 33.432 259.309 33.328 259.651 33.12C259.997 32.9067 260.264 32.6 260.451 32.2L262.355 32.776C262.024 33.5547 261.512 34.16 260.819 34.592C260.131 35.024 259.371 35.24 258.539 35.24ZM255.563 31.216V29.76H261.507V31.216H255.563Z" fill="#F9FAFB"/>
</svg>
