<svg width="12" height="25" viewBox="0 0 12 25" fill="none" xmlns="http://www.w3.org/2000/svg">
<mask id="path-1-inside-1_1_4267" fill="white">
<path d="M5.03839 18.5203C3.94915 18.5203 3.02962 18.2755 2.27982 17.7859C1.53001 17.2912 0.962589 16.6084 0.577553 15.7376C0.192518 14.8667 0 13.8618 0 12.723C0 11.5841 0.192518 10.5792 0.577553 9.70836C0.962589 8.83748 1.53001 8.15726 2.27982 7.66771C3.02962 7.17301 3.94915 6.92566 5.03839 6.92566C6.31003 6.92566 7.34861 7.25804 8.15414 7.92279C8.95968 8.5824 9.5119 9.46874 9.81081 10.5818L8.6709 10.8833C8.43785 10.0021 8.01989 9.30384 7.417 8.78852C6.81412 8.27321 6.02125 8.01555 5.03839 8.01555C4.1822 8.01555 3.47039 8.21395 2.90297 8.61074C2.33555 9.00753 1.90745 9.5615 1.61867 10.2726C1.33496 10.9786 1.18804 11.7954 1.17791 12.723C1.17284 13.6505 1.31216 14.4673 1.59587 15.1733C1.88465 15.8793 2.31528 16.4332 2.88777 16.8352C3.46532 17.232 4.1822 17.4304 5.03839 17.4304C6.02125 17.4304 6.81412 17.1727 7.417 16.6574C8.01989 16.1369 8.43785 15.4387 8.6709 14.5626L9.81081 14.8641C9.5119 15.9772 8.95968 16.8661 8.15414 17.5308C7.34861 18.1905 6.31003 18.5203 5.03839 18.5203Z"/>
</mask>
<path d="M5.03839 18.5203C3.94915 18.5203 3.02962 18.2755 2.27982 17.7859C1.53001 17.2912 0.962589 16.6084 0.577553 15.7376C0.192518 14.8667 0 13.8618 0 12.723C0 11.5841 0.192518 10.5792 0.577553 9.70836C0.962589 8.83748 1.53001 8.15726 2.27982 7.66771C3.02962 7.17301 3.94915 6.92566 5.03839 6.92566C6.31003 6.92566 7.34861 7.25804 8.15414 7.92279C8.95968 8.5824 9.5119 9.46874 9.81081 10.5818L8.6709 10.8833C8.43785 10.0021 8.01989 9.30384 7.417 8.78852C6.81412 8.27321 6.02125 8.01555 5.03839 8.01555C4.1822 8.01555 3.47039 8.21395 2.90297 8.61074C2.33555 9.00753 1.90745 9.5615 1.61867 10.2726C1.33496 10.9786 1.18804 11.7954 1.17791 12.723C1.17284 13.6505 1.31216 14.4673 1.59587 15.1733C1.88465 15.8793 2.31528 16.4332 2.88777 16.8352C3.46532 17.232 4.1822 17.4304 5.03839 17.4304C6.02125 17.4304 6.81412 17.1727 7.417 16.6574C8.01989 16.1369 8.43785 15.4387 8.6709 14.5626L9.81081 14.8641C9.5119 15.9772 8.95968 16.8661 8.15414 17.5308C7.34861 18.1905 6.31003 18.5203 5.03839 18.5203Z" fill="white"/>
<path d="M2.27982 17.7859L1.17838 19.4553L1.18643 19.4606L2.27982 17.7859ZM0.577553 9.70836L2.40675 10.5171V10.5171L0.577553 9.70836ZM2.27982 7.66771L3.37322 9.3424L3.38124 9.33711L2.27982 7.66771ZM8.15414 7.92279L6.88115 9.46537L6.88706 9.47021L8.15414 7.92279ZM9.81081 10.5818L10.3222 12.5153L12.2631 12.0021L11.7424 10.0631L9.81081 10.5818ZM8.6709 10.8833L6.73738 11.3946L7.24873 13.3281L9.18224 12.8168L8.6709 10.8833ZM7.417 8.78852L6.11752 10.3088L6.11752 10.3088L7.417 8.78852ZM2.90297 8.61074L4.04911 10.2497L2.90297 8.61074ZM1.61867 10.2726L-0.234386 9.52015L-0.237087 9.52687L1.61867 10.2726ZM1.17791 12.723L-0.822005 12.7011L-0.822065 12.712L1.17791 12.723ZM1.59587 15.1733L-0.25992 15.9191L-0.255254 15.9305L1.59587 15.1733ZM2.88777 16.8352L1.73853 18.472L1.74686 18.4779L1.75524 18.4836L2.88777 16.8352ZM7.417 16.6574L8.7165 18.1777L8.72395 18.1713L7.417 16.6574ZM8.6709 14.5626L9.18224 12.6291L7.25154 12.1185L6.73812 14.0485L8.6709 14.5626ZM9.81081 14.8641L11.7424 15.3828L12.2631 13.4439L10.3222 12.9306L9.81081 14.8641ZM8.15414 17.5308L9.42124 19.0783L9.42713 19.0734L8.15414 17.5308ZM5.03839 16.5203C4.25273 16.5203 3.73351 16.3465 3.37321 16.1113L1.18643 19.4606C2.32573 20.2044 3.64557 20.5203 5.03839 20.5203V16.5203ZM3.38124 16.1165C2.97108 15.8459 2.64648 15.471 2.40675 14.9288L-1.25164 16.5463C-0.721298 17.7458 0.0889453 18.7365 1.1784 19.4553L3.38124 16.1165ZM2.40675 14.9288C2.15419 14.3576 2 13.6369 2 12.723H-2C-2 14.0867 -1.76915 15.3758 -1.25164 16.5463L2.40675 14.9288ZM2 12.723C2 11.809 2.15419 11.0883 2.40675 10.5171L-1.25164 8.89964C-1.76915 10.0701 -2 11.3592 -2 12.723H2ZM2.40675 10.5171C2.64579 9.97643 2.9681 9.60687 3.37321 9.34238L1.18643 5.99305C0.0919253 6.70765 -0.72061 7.69853 -1.25164 8.89964L2.40675 10.5171ZM3.38124 9.33711C3.74041 9.10013 4.25663 8.92566 5.03839 8.92566V4.92566C3.64167 4.92566 2.31883 5.24589 1.1784 5.99832L3.38124 9.33711ZM5.03839 8.92566C5.95018 8.92566 6.50717 9.15673 6.88116 9.46536L9.42713 6.38023C8.19005 5.35934 6.66987 4.92566 5.03839 4.92566V8.92566ZM6.88706 9.47021C7.3345 9.83659 7.67665 10.3461 7.87925 11.1005L11.7424 10.0631C11.3472 8.59138 10.5849 7.32821 9.42123 6.37538L6.88706 9.47021ZM9.29947 8.64829L8.15956 8.94975L9.18224 12.8168L10.3222 12.5153L9.29947 8.64829ZM10.6044 10.3719C10.2835 9.15835 9.67274 8.08557 8.71649 7.26821L6.11752 10.3088C6.36703 10.5221 6.59224 10.8458 6.73738 11.3946L10.6044 10.3719ZM8.71649 7.26821C7.6708 6.37442 6.37972 6.01555 5.03839 6.01555V10.0156C5.66278 10.0156 5.95743 10.172 6.11752 10.3088L8.71649 7.26821ZM5.03839 6.01555C3.87019 6.01555 2.73251 6.28944 1.75682 6.97173L4.04911 10.2497C4.20827 10.1385 4.4942 10.0156 5.03839 10.0156V6.01555ZM1.75682 6.97173C0.839409 7.61327 0.183258 8.4917 -0.234374 9.52015L3.47171 11.0251C3.63164 10.6313 3.83168 10.4018 4.04911 10.2497L1.75682 6.97173ZM-0.237087 9.52687C-0.631169 10.5075 -0.809709 11.5782 -0.821976 12.7011L3.17779 12.7448C3.18578 12.0126 3.30109 11.4497 3.47443 11.0184L-0.237087 9.52687ZM-0.822065 12.712C-0.828245 13.8435 -0.658909 14.9261 -0.259885 15.919L3.45163 14.4275C3.28323 14.0085 3.17392 13.4575 3.17788 12.7339L-0.822065 12.712ZM-0.255254 15.9305C0.164838 16.9575 0.82449 17.8303 1.73853 18.472L4.037 15.1983C3.80607 15.0362 3.60446 14.801 3.447 14.4161L-0.255254 15.9305ZM1.75524 18.4836C2.73383 19.1559 3.86866 19.4304 5.03839 19.4304V15.4304C4.49573 15.4304 4.19681 15.308 4.02029 15.1867L1.75524 18.4836ZM5.03839 19.4304C6.37972 19.4304 7.6708 19.0715 8.71649 18.1777L6.11752 15.1371C5.95743 15.2739 5.66278 15.4304 5.03839 15.4304V19.4304ZM8.72395 18.1713C9.67195 17.3529 10.282 16.2859 10.6037 15.0768L6.73812 14.0485C6.59368 14.5914 6.36783 14.921 6.11006 15.1435L8.72395 18.1713ZM8.15956 16.4962L9.29947 16.7976L10.3222 12.9306L9.18224 12.6291L8.15956 16.4962ZM7.87925 14.3454C7.67644 15.1006 7.333 15.6154 6.88116 15.9883L9.42713 19.0734C10.5864 18.1168 11.3474 16.8538 11.7424 15.3828L7.87925 14.3454ZM6.88706 15.9834C6.513 16.2897 5.95383 16.5203 5.03839 16.5203V20.5203C6.66622 20.5203 8.18422 20.0912 9.42123 19.0783L6.88706 15.9834Z" fill="white" mask="url(#path-1-inside-1_1_4267)"/>
<path d="M7.13513 4.25L3.56757 12.723H7.13513L3.56757 20.75" stroke="white"/>
</svg>
