<svg width="329" height="58" viewBox="0 0 329 58" fill="none" xmlns="http://www.w3.org/2000/svg">
<rect x="1" y="1" width="327" height="56" rx="4" fill="#171A20"/>
<rect x="1" y="1" width="327" height="56" rx="4" stroke="#344054"/>
<path d="M80.9884 27.2047H80.25V27.1667H72V30.8333H77.1806C76.4248 32.9678 74.3939 34.5 72 34.5C68.9626 34.5 66.5 32.0374 66.5 29C66.5 25.9626 68.9626 23.5 72 23.5C73.4021 23.5 74.6776 24.0289 75.6488 24.8929L78.2416 22.3001C76.6044 20.7743 74.4145 19.8333 72 19.8333C66.9377 19.8333 62.8333 23.9377 62.8333 29C62.8333 34.0623 66.9377 38.1667 72 38.1667C77.0623 38.1667 81.1667 34.0623 81.1667 29C81.1667 28.3854 81.1034 27.7854 80.9884 27.2047Z" fill="#FFC107"/>
<path d="M63.8903 24.7334L66.902 26.9421C67.7169 24.9245 69.6905 23.5 72 23.5C73.4021 23.5 74.6776 24.0289 75.6488 24.8929L78.2416 22.3001C76.6044 20.7743 74.4145 19.8333 72 19.8333C68.4791 19.8333 65.4257 21.8211 63.8903 24.7334Z" fill="#FF3D00"/>
<path d="M72 38.1667C74.3678 38.1667 76.5192 37.2605 78.1458 35.787L75.3087 33.3862C74.3575 34.1097 73.1951 34.5009 72 34.5C69.6158 34.5 67.5913 32.9797 66.8286 30.8581L63.8394 33.1612C65.3565 36.1298 68.4374 38.1667 72 38.1667Z" fill="#4CAF50"/>
<path d="M80.9884 27.2047H80.25V27.1667H72V30.8333H77.1805C76.819 31.8492 76.1678 32.7369 75.3073 33.3867L75.3087 33.3858L78.1458 35.7865C77.945 35.969 81.1667 33.5833 81.1667 29C81.1667 28.3854 81.1034 27.7854 80.9884 27.2047Z" fill="#1976D2"/>
<path d="M100.992 35.24C99.84 35.24 98.8533 34.9893 98.032 34.488C97.2107 33.9813 96.5787 33.2773 96.136 32.376C95.6987 31.4747 95.48 30.4293 95.48 29.24C95.48 28.0507 95.6987 27.0053 96.136 26.104C96.5787 25.2027 97.2107 24.5013 98.032 24C98.8533 23.4933 99.84 23.24 100.992 23.24C102.32 23.24 103.427 23.5733 104.312 24.24C105.197 24.9013 105.819 25.7947 106.176 26.92L104.232 27.456C104.008 26.704 103.627 26.1173 103.088 25.696C102.549 25.2693 101.851 25.056 100.992 25.056C100.219 25.056 99.5733 25.2293 99.056 25.576C98.544 25.9227 98.1573 26.4107 97.896 27.04C97.64 27.664 97.5093 28.3973 97.504 29.24C97.504 30.0827 97.632 30.8187 97.888 31.448C98.1493 32.072 98.5387 32.5573 99.056 32.904C99.5733 33.2507 100.219 33.424 100.992 33.424C101.851 33.424 102.549 33.2107 103.088 32.784C103.627 32.3573 104.008 31.7707 104.232 31.024L106.176 31.56C105.819 32.6853 105.197 33.5813 104.312 34.248C103.427 34.9093 102.32 35.24 100.992 35.24ZM111.949 35.24C111.084 35.24 110.33 35.0453 109.684 34.656C109.039 34.2667 108.538 33.7307 108.18 33.048C107.828 32.36 107.652 31.5707 107.652 30.68C107.652 29.7733 107.834 28.9787 108.196 28.296C108.559 27.6133 109.063 27.08 109.708 26.696C110.354 26.312 111.101 26.12 111.949 26.12C112.818 26.12 113.575 26.3147 114.22 26.704C114.866 27.0933 115.367 27.632 115.725 28.32C116.082 29.0027 116.26 29.7893 116.26 30.68C116.26 31.576 116.079 32.368 115.717 33.056C115.359 33.7387 114.858 34.2747 114.213 34.664C113.567 35.048 112.813 35.24 111.949 35.24ZM111.949 33.432C112.717 33.432 113.287 33.176 113.661 32.664C114.034 32.152 114.22 31.4907 114.22 30.68C114.22 29.8427 114.031 29.176 113.653 28.68C113.274 28.1787 112.706 27.928 111.949 27.928C111.431 27.928 111.005 28.0453 110.668 28.28C110.338 28.5093 110.092 28.832 109.932 29.248C109.772 29.6587 109.692 30.136 109.692 30.68C109.692 31.5173 109.882 32.1867 110.26 32.688C110.644 33.184 111.207 33.432 111.949 33.432ZM124.199 35V30.84C124.199 30.568 124.18 30.2667 124.143 29.936C124.106 29.6053 124.018 29.288 123.879 28.984C123.746 28.6747 123.543 28.4213 123.271 28.224C123.004 28.0267 122.642 27.928 122.183 27.928C121.938 27.928 121.695 27.968 121.455 28.048C121.215 28.128 120.996 28.2667 120.799 28.464C120.607 28.656 120.452 28.9227 120.335 29.264C120.218 29.6 120.159 30.032 120.159 30.56L119.015 30.072C119.015 29.336 119.156 28.6693 119.439 28.072C119.727 27.4747 120.148 27 120.703 26.648C121.258 26.2907 121.94 26.112 122.751 26.112C123.391 26.112 123.919 26.2187 124.335 26.432C124.751 26.6453 125.082 26.9173 125.327 27.248C125.572 27.5787 125.754 27.9307 125.871 28.304C125.988 28.6773 126.063 29.032 126.095 29.368C126.132 29.6987 126.151 29.968 126.151 30.176V35H124.199ZM118.207 35V26.36H119.927V29.04H120.159V35H118.207ZM133.503 35C132.932 35.1067 132.372 35.152 131.823 35.136C131.279 35.1253 130.791 35.0267 130.359 34.84C129.927 34.648 129.599 34.3467 129.375 33.936C129.177 33.5627 129.073 33.1813 129.063 32.792C129.052 32.4027 129.047 31.9627 129.047 31.472V23.96H130.967V31.36C130.967 31.7067 130.969 32.0107 130.975 32.272C130.985 32.5333 131.041 32.7467 131.143 32.912C131.335 33.232 131.641 33.4107 132.063 33.448C132.484 33.4853 132.964 33.464 133.503 33.384V35ZM127.479 27.872V26.36H133.503V27.872H127.479ZM135.721 25.048V23.28H137.649V25.048H135.721ZM135.721 35V26.36H137.649V35H135.721ZM146.221 35V30.84C146.221 30.568 146.202 30.2667 146.165 29.936C146.128 29.6053 146.04 29.288 145.901 28.984C145.768 28.6747 145.565 28.4213 145.293 28.224C145.026 28.0267 144.664 27.928 144.205 27.928C143.96 27.928 143.717 27.968 143.477 28.048C143.237 28.128 143.018 28.2667 142.821 28.464C142.629 28.656 142.474 28.9227 142.357 29.264C142.24 29.6 142.181 30.032 142.181 30.56L141.037 30.072C141.037 29.336 141.178 28.6693 141.461 28.072C141.749 27.4747 142.17 27 142.725 26.648C143.28 26.2907 143.962 26.112 144.773 26.112C145.413 26.112 145.941 26.2187 146.357 26.432C146.773 26.6453 147.104 26.9173 147.349 27.248C147.594 27.5787 147.776 27.9307 147.893 28.304C148.01 28.6773 148.085 29.032 148.117 29.368C148.154 29.6987 148.173 29.968 148.173 30.176V35H146.221ZM140.229 35V26.36H141.949V29.04H142.181V35H140.229ZM153.701 35.248C153.061 35.248 152.533 35.1413 152.117 34.928C151.701 34.7147 151.37 34.4427 151.125 34.112C150.879 33.7813 150.698 33.4293 150.581 33.056C150.463 32.6827 150.386 32.3307 150.349 32C150.317 31.664 150.301 31.392 150.301 31.184V26.36H152.253V30.52C152.253 30.7867 152.271 31.088 152.309 31.424C152.346 31.7547 152.431 32.0747 152.565 32.384C152.703 32.688 152.906 32.9387 153.173 33.136C153.445 33.3333 153.81 33.432 154.269 33.432C154.514 33.432 154.757 33.392 154.997 33.312C155.237 33.232 155.453 33.096 155.645 32.904C155.842 32.7067 155.999 32.4373 156.117 32.096C156.234 31.7547 156.293 31.3227 156.293 30.8L157.437 31.288C157.437 32.024 157.293 32.6907 157.005 33.288C156.722 33.8853 156.303 34.3627 155.749 34.72C155.194 35.072 154.511 35.248 153.701 35.248ZM156.525 35V32.32H156.293V26.36H158.229V35H156.525ZM164.604 35.24C163.73 35.24 162.962 35.0507 162.3 34.672C161.639 34.2933 161.122 33.768 160.748 33.096C160.38 32.424 160.196 31.6507 160.196 30.776C160.196 29.832 160.378 29.0133 160.74 28.32C161.103 27.6213 161.607 27.08 162.252 26.696C162.898 26.312 163.644 26.12 164.492 26.12C165.388 26.12 166.148 26.3307 166.772 26.752C167.402 27.168 167.868 27.7573 168.172 28.52C168.476 29.2827 168.591 30.1813 168.516 31.216H166.604V30.512C166.599 29.5733 166.434 28.888 166.108 28.456C165.783 28.024 165.271 27.808 164.572 27.808C163.783 27.808 163.196 28.0533 162.812 28.544C162.428 29.0293 162.236 29.7413 162.236 30.68C162.236 31.5547 162.428 32.232 162.812 32.712C163.196 33.192 163.756 33.432 164.492 33.432C164.967 33.432 165.375 33.328 165.716 33.12C166.063 32.9067 166.33 32.6 166.516 32.2L168.42 32.776C168.09 33.5547 167.578 34.16 166.884 34.592C166.196 35.024 165.436 35.24 164.604 35.24ZM161.628 31.216V29.76H167.572V31.216H161.628ZM175.744 35L173.104 26.344L174.992 26.36L176.68 31.904L178.392 26.36H180.016L181.72 31.904L183.416 26.36H185.304L182.664 35H181.16L179.2 29.056L177.248 35H175.744ZM187.108 25.048V23.28H189.036V25.048H187.108ZM187.108 35V26.36H189.036V35H187.108ZM196.696 35C196.126 35.1067 195.566 35.152 195.016 35.136C194.472 35.1253 193.984 35.0267 193.552 34.84C193.12 34.648 192.792 34.3467 192.568 33.936C192.371 33.5627 192.267 33.1813 192.256 32.792C192.246 32.4027 192.24 31.9627 192.24 31.472V23.96H194.16V31.36C194.16 31.7067 194.163 32.0107 194.168 32.272C194.179 32.5333 194.235 32.7467 194.336 32.912C194.528 33.232 194.835 33.4107 195.256 33.448C195.678 33.4853 196.158 33.464 196.696 33.384V35ZM190.672 27.872V26.36H196.696V27.872H190.672ZM204.73 35V30.84C204.73 30.568 204.712 30.2667 204.674 29.936C204.637 29.6053 204.549 29.288 204.41 28.984C204.277 28.6747 204.074 28.4213 203.802 28.224C203.536 28.0267 203.173 27.928 202.714 27.928C202.469 27.928 202.226 27.968 201.986 28.048C201.746 28.128 201.528 28.2667 201.33 28.464C201.138 28.656 200.984 28.9227 200.866 29.264C200.749 29.6 200.69 30.032 200.69 30.56L199.546 30.072C199.546 29.336 199.688 28.6693 199.97 28.072C200.258 27.4747 200.68 27 201.234 26.648C201.789 26.2907 202.472 26.112 203.282 26.112C203.922 26.112 204.45 26.2187 204.866 26.432C205.282 26.6453 205.613 26.9173 205.858 27.248C206.104 27.5787 206.285 27.9307 206.402 28.304C206.52 28.6773 206.594 29.032 206.626 29.368C206.664 29.6987 206.682 29.968 206.682 30.176V35H204.73ZM198.738 35V23.48H200.458V29.544H200.69V35H198.738ZM217.125 35.24C216.378 35.24 215.677 35.1093 215.021 34.848C214.37 34.5813 213.797 34.192 213.301 33.68C212.81 33.168 212.426 32.5413 212.149 31.8C211.872 31.0533 211.733 30.2 211.733 29.24C211.733 27.9813 211.968 26.9067 212.437 26.016C212.906 25.12 213.549 24.4347 214.365 23.96C215.181 23.48 216.101 23.24 217.125 23.24C218.544 23.24 219.666 23.5707 220.493 24.232C221.325 24.888 221.888 25.8107 222.181 27L220.213 27.312C219.994 26.6293 219.637 26.0853 219.141 25.68C218.645 25.2693 218.013 25.064 217.245 25.064C216.472 25.0533 215.829 25.2213 215.317 25.568C214.805 25.9147 214.418 26.4027 214.157 27.032C213.901 27.6613 213.773 28.3973 213.773 29.24C213.773 30.0827 213.901 30.816 214.157 31.44C214.413 32.0587 214.797 32.5413 215.309 32.888C215.826 33.2347 216.472 33.4133 217.245 33.424C217.826 33.4293 218.336 33.3253 218.773 33.112C219.21 32.8933 219.568 32.5653 219.845 32.128C220.122 31.6853 220.309 31.1333 220.405 30.472H218.373V28.96H222.453C222.464 29.0453 222.472 29.1707 222.477 29.336C222.482 29.5013 222.485 29.6 222.485 29.632C222.485 30.72 222.269 31.688 221.837 32.536C221.41 33.3787 220.797 34.04 219.997 34.52C219.197 35 218.24 35.24 217.125 35.24ZM228.108 35.24C227.244 35.24 226.489 35.0453 225.844 34.656C225.199 34.2667 224.697 33.7307 224.34 33.048C223.988 32.36 223.812 31.5707 223.812 30.68C223.812 29.7733 223.993 28.9787 224.356 28.296C224.719 27.6133 225.223 27.08 225.868 26.696C226.513 26.312 227.26 26.12 228.108 26.12C228.977 26.12 229.735 26.3147 230.38 26.704C231.025 27.0933 231.527 27.632 231.884 28.32C232.241 29.0027 232.42 29.7893 232.42 30.68C232.42 31.576 232.239 32.368 231.876 33.056C231.519 33.7387 231.017 34.2747 230.372 34.664C229.727 35.048 228.972 35.24 228.108 35.24ZM228.108 33.432C228.876 33.432 229.447 33.176 229.82 32.664C230.193 32.152 230.38 31.4907 230.38 30.68C230.38 29.8427 230.191 29.176 229.812 28.68C229.433 28.1787 228.865 27.928 228.108 27.928C227.591 27.928 227.164 28.0453 226.828 28.28C226.497 28.5093 226.252 28.832 226.092 29.248C225.932 29.6587 225.852 30.136 225.852 30.68C225.852 31.5173 226.041 32.1867 226.42 32.688C226.804 33.184 227.367 33.432 228.108 33.432ZM238.198 35.24C237.334 35.24 236.58 35.0453 235.934 34.656C235.289 34.2667 234.788 33.7307 234.43 33.048C234.078 32.36 233.902 31.5707 233.902 30.68C233.902 29.7733 234.084 28.9787 234.446 28.296C234.809 27.6133 235.313 27.08 235.958 26.696C236.604 26.312 237.35 26.12 238.198 26.12C239.068 26.12 239.825 26.3147 240.47 26.704C241.116 27.0933 241.617 27.632 241.974 28.32C242.332 29.0027 242.51 29.7893 242.51 30.68C242.51 31.576 242.329 32.368 241.966 33.056C241.609 33.7387 241.108 34.2747 240.462 34.664C239.817 35.048 239.062 35.24 238.198 35.24ZM238.198 33.432C238.966 33.432 239.537 33.176 239.91 32.664C240.284 32.152 240.47 31.4907 240.47 30.68C240.47 29.8427 240.281 29.176 239.902 28.68C239.524 28.1787 238.956 27.928 238.198 27.928C237.681 27.928 237.254 28.0453 236.918 28.28C236.588 28.5093 236.342 28.832 236.182 29.248C236.022 29.6587 235.942 30.136 235.942 30.68C235.942 31.5173 236.132 32.1867 236.51 32.688C236.894 33.184 237.457 33.432 238.198 33.432ZM248.105 39.08C247.625 39.08 247.164 39.0053 246.721 38.856C246.284 38.7067 245.889 38.4907 245.537 38.208C245.185 37.9307 244.897 37.5947 244.673 37.2L246.449 36.32C246.614 36.6347 246.846 36.8667 247.145 37.016C247.449 37.1707 247.772 37.248 248.113 37.248C248.513 37.248 248.87 37.176 249.185 37.032C249.5 36.8933 249.742 36.6853 249.913 36.408C250.089 36.136 250.172 35.7947 250.161 35.384V32.928H250.401V26.36H252.089V35.416C252.089 35.6347 252.078 35.8427 252.057 36.04C252.041 36.2427 252.012 36.44 251.969 36.632C251.841 37.192 251.596 37.6507 251.233 38.008C250.87 38.3707 250.42 38.64 249.881 38.816C249.348 38.992 248.756 39.08 248.105 39.08ZM247.937 35.24C247.142 35.24 246.449 35.04 245.857 34.64C245.265 34.24 244.806 33.696 244.481 33.008C244.156 32.32 243.993 31.544 243.993 30.68C243.993 29.8053 244.156 29.0267 244.481 28.344C244.812 27.656 245.278 27.1147 245.881 26.72C246.484 26.32 247.193 26.12 248.009 26.12C248.83 26.12 249.518 26.32 250.073 26.72C250.633 27.1147 251.057 27.656 251.345 28.344C251.633 29.032 251.777 29.8107 251.777 30.68C251.777 31.5387 251.633 32.3147 251.345 33.008C251.057 33.696 250.628 34.24 250.057 34.64C249.486 35.04 248.78 35.24 247.937 35.24ZM248.233 33.512C248.75 33.512 249.166 33.3947 249.481 33.16C249.801 32.92 250.033 32.5867 250.177 32.16C250.326 31.7333 250.401 31.24 250.401 30.68C250.401 30.1147 250.326 29.6213 250.177 29.2C250.033 28.7733 249.806 28.4427 249.497 28.208C249.188 27.968 248.788 27.848 248.297 27.848C247.78 27.848 247.353 27.976 247.017 28.232C246.681 28.4827 246.433 28.824 246.273 29.256C246.113 29.6827 246.033 30.1573 246.033 30.68C246.033 31.208 246.11 31.688 246.265 32.12C246.425 32.5467 246.668 32.8853 246.993 33.136C247.318 33.3867 247.732 33.512 248.233 33.512ZM254.693 35V23.24H256.621V35H254.693ZM263.145 35.24C262.27 35.24 261.502 35.0507 260.841 34.672C260.18 34.2933 259.662 33.768 259.289 33.096C258.921 32.424 258.737 31.6507 258.737 30.776C258.737 29.832 258.918 29.0133 259.281 28.32C259.644 27.6213 260.148 27.08 260.793 26.696C261.438 26.312 262.185 26.12 263.033 26.12C263.929 26.12 264.689 26.3307 265.313 26.752C265.942 27.168 266.409 27.7573 266.713 28.52C267.017 29.2827 267.132 30.1813 267.057 31.216H265.145V30.512C265.14 29.5733 264.974 28.888 264.649 28.456C264.324 28.024 263.812 27.808 263.113 27.808C262.324 27.808 261.737 28.0533 261.353 28.544C260.969 29.0293 260.777 29.7413 260.777 30.68C260.777 31.5547 260.969 32.232 261.353 32.712C261.737 33.192 262.297 33.432 263.033 33.432C263.508 33.432 263.916 33.328 264.257 33.12C264.604 32.9067 264.87 32.6 265.057 32.2L266.961 32.776C266.63 33.5547 266.118 34.16 265.425 34.592C264.737 35.024 263.977 35.24 263.145 35.24ZM260.169 31.216V29.76H266.113V31.216H260.169Z" fill="#F9FAFB"/>
</svg>
