<svg width="15" height="14" viewBox="0 0 15 14" fill="none" xmlns="http://www.w3.org/2000/svg">
<path fill-rule="evenodd" clip-rule="evenodd" d="M7.56497 13.3744C11.3688 13.3744 14.88 10.239 14.88 6.3606C14.88 3.99399 13.6605 1.90082 11.7919 0.628593C11.6655 0.542589 11.5152 0.500006 11.3624 0.500006L7.56497 0.5L3.76757 0.500006C3.61475 0.500006 3.46443 0.542589 3.33812 0.628593C1.46949 1.90082 0.25 3.99399 0.25 6.3606C0.25 10.239 4.05377 13.3744 7.56497 13.3744ZM9.33219 4.92084C9.76387 4.92084 10.1138 4.55959 10.1138 4.11397C10.1138 3.66835 9.76387 3.30708 9.33219 3.30708C8.90051 3.30708 8.55054 3.66835 8.55054 4.11397C8.55054 4.55959 8.90051 4.92084 9.33219 4.92084ZM5.38605 6.40809C5.38605 6.98546 4.90669 7.45359 4.31539 7.45359C3.72405 7.45359 3.24469 6.98546 3.24469 6.40809C3.24469 5.83067 3.72405 5.3626 4.31539 5.3626C4.90669 5.3626 5.38605 5.83067 5.38605 6.40809ZM6.99943 9.23149C6.99943 9.80891 6.52008 10.277 5.92877 10.277C5.33741 10.277 4.85805 9.80891 4.85805 9.23149C4.85805 8.65406 5.33741 8.18599 5.92877 8.18599C6.52008 8.18599 6.99943 8.65406 6.99943 9.23149ZM9.35711 10.277C9.94841 10.277 10.4278 9.80891 10.4278 9.23149C10.4278 8.65406 9.94841 8.18599 9.35711 8.18599C8.76581 8.18599 8.28645 8.65406 8.28645 9.23149C8.28645 9.80891 8.76581 10.277 9.35711 10.277ZM8.7136 6.40809C8.7136 6.98546 8.23425 7.45359 7.64294 7.45359C7.05158 7.45359 6.57222 6.98546 6.57222 6.40809C6.57222 5.83067 7.05158 5.3626 7.64294 5.3626C8.23425 5.3626 8.7136 5.83067 8.7136 6.40809ZM11.9908 6.40809C11.9908 6.98546 11.5114 7.45359 10.9201 7.45359C10.3287 7.45359 9.84938 6.98546 9.84938 6.40809C9.84938 5.83067 10.3287 5.3626 10.9201 5.3626C11.5114 5.3626 11.9908 5.83067 11.9908 6.40809ZM6.05454 4.92084C6.48622 4.92084 6.83619 4.55959 6.83619 4.11397C6.83619 3.66835 6.48622 3.30708 6.05454 3.30708C5.62286 3.30708 5.27289 3.66835 5.27289 4.11397C5.27289 4.55959 5.62286 4.92084 6.05454 4.92084Z" fill="#EAECF0"/>
</svg>
