<svg width="12" height="16" viewBox="0 0 12 16" fill="none" xmlns="http://www.w3.org/2000/svg">
<path fill-rule="evenodd" clip-rule="evenodd" d="M8.93252 0.149996C8.78998 0.0675 8.56498 0 8.38498 0H3.1125C2.91 0 2.7075 0.0599962 2.5425 0.18L2.505 0.194996C2.49 0.209998 2.4675 0.225 2.43 0.2475C2.37 0.2925 2.28 0.352496 2.19 0.419996C2.025 0.547498 1.755 0.757496 1.5675 0.9675C1.26 1.305 0.997504 1.725 0.817504 2.04C0.6525 2.3475 0.495 2.655 0.36 3.0675C0.240002 3.42 0.1125 3.855 0.0750037 4.41001C0.0375018 4.92751 0.0899998 5.60999 0.217502 6.14999C0.352502 6.71249 0.600002 7.20001 0.7875 7.53002C1.005 7.92 1.1775 8.12999 1.4175 8.39999C1.6575 8.66999 1.9725 8.98499 2.3025 9.2475C0.960002 9.70499 0 10.9725 0 12.4575C0 14.3325 1.515 15.75 3.3825 15.75H8.22748C10.095 15.75 11.61 14.3325 11.61 12.4575C11.61 10.9425 10.6125 9.65999 9.23998 9.225C9.46498 9.06002 9.67502 8.865 9.86998 8.65502C10.4475 8.02502 10.92 7.26002 11.205 6.44249C11.4525 5.75252 11.52 5.02499 11.4975 4.35752C11.475 3.7875 11.3475 3.2475 11.16 2.7525C10.9875 2.295 10.695 1.845 10.515 1.575C10.245 1.1625 9.8175 0.779996 9.57748 0.577496C9.40502 0.434998 9.21748 0.315 9.0975 0.2475C9.03 0.209998 8.96998 0.172496 8.93252 0.149996C8.94748 0.1575 8.91002 0.142498 8.93252 0.149996ZM3.89252 2.85C3.89252 3.195 4.16252 3.4725 4.49248 3.4725C4.8225 3.4725 5.0925 3.195 5.0925 2.85C5.0925 2.505 4.8225 2.2275 4.49248 2.2275C4.16252 2.2275 3.89252 2.505 3.89252 2.85ZM8.34752 5.41502C7.88998 5.41502 7.5225 5.05502 7.5225 4.61251C7.5225 4.16999 7.88998 3.81 8.34752 3.81C8.805 3.81 9.17248 4.16999 9.17248 4.61251C9.17248 5.05502 8.805 5.41502 8.34752 5.41502ZM6.285 6.77999C6.285 7.22251 6.65248 7.5825 7.11002 7.5825C7.5675 7.5825 7.93498 7.22251 7.93498 6.77999C7.93498 6.33752 7.5675 5.97752 7.11002 5.97752C6.65248 5.97752 6.285 6.33752 6.285 6.77999ZM3.64502 6.77999C3.64502 7.22251 4.0125 7.5825 4.46998 7.5825C4.92752 7.5825 5.295 7.22251 5.295 6.77999C5.295 6.33752 4.92752 5.97752 4.46998 5.97752C4.01998 5.97752 3.64502 6.33752 3.64502 6.77999ZM4.96498 4.61251C4.96498 5.05502 5.33252 5.41502 5.79 5.41502C6.24748 5.41502 6.61502 5.05502 6.61502 4.61251C6.61502 4.16999 6.24748 3.81 5.79 3.81C5.33252 3.81 4.96498 4.16999 4.96498 4.61251ZM3.27 5.41502C2.81252 5.41502 2.445 5.05502 2.445 4.61251C2.445 4.16999 2.81252 3.81 3.27 3.81C3.72748 3.81 4.09502 4.16999 4.09502 4.61251C4.09502 5.05502 3.72748 5.41502 3.27 5.41502ZM7.01248 3.4725C6.68252 3.4725 6.41252 3.195 6.41252 2.85C6.41252 2.505 6.68252 2.2275 7.01248 2.2275C7.3425 2.2275 7.6125 2.505 7.6125 2.85C7.6125 3.1875 7.3425 3.4725 7.01248 3.4725ZM6.62998 12.4425C6.62998 13.17 7.2075 13.755 7.92002 13.755C8.63248 13.755 9.21 13.17 9.21 12.4425C9.21 11.715 8.63248 11.13 7.92002 11.13C7.2075 11.13 6.62998 11.715 6.62998 12.4425ZM3.6975 13.7175C2.98498 13.7175 2.4075 13.1325 2.4075 12.405C2.4075 11.6775 2.98498 11.0925 3.6975 11.0925C4.41002 11.0925 4.98748 11.6775 4.98748 12.405C4.98748 13.125 4.41002 13.7175 3.6975 13.7175Z" fill="#98A2B3"/>
</svg>
